<svg width="137" height="24" viewBox="0 0 137 24" fill="none" xmlns="http://www.w3.org/2000/svg">
<g clip-path="url(#clip0_2214_9078)">
<path d="M15.6231 0H6.05981C5.71281 0 5.40821 0.23088 5.31441 0.56497L2.59811 10.2423C2.45951 10.7361 2.83061 11.2257 3.34351 11.2257H12.9068C13.2538 11.2257 13.5584 10.9948 13.6522 10.6608L16.3685 0.98341C16.5071 0.48963 16.136 0 15.6231 0Z" fill="url(#paint0_linear_2214_9078)"/>
<path d="M19.4942 12.7744H9.93091C9.58391 12.7744 9.27931 13.0053 9.18551 13.3394L6.46921 23.0167C6.33061 23.5105 6.70171 24.0001 7.21461 24.0001H16.7779C17.1249 24.0001 17.4295 23.7693 17.5233 23.4352L20.2396 13.7578C20.3782 13.264 20.0071 12.7744 19.4942 12.7744Z" fill="url(#paint1_linear_2214_9078)"/>
<path d="M22.0307 4.83887H17.2827C16.9357 4.83887 16.6311 5.06967 16.5373 5.40377L15.1792 10.2425C15.0406 10.7363 15.4117 11.2259 15.9245 11.2259H20.6725C21.0195 11.2259 21.3241 10.995 21.4179 10.661L22.7761 5.82227C22.9147 5.32847 22.5436 4.83887 22.0307 4.83887Z" fill="url(#paint2_linear_2214_9078)"/>
<path d="M7.12741 12.7744H2.37941C2.03241 12.7744 1.72778 13.0053 1.63401 13.3394L0.275844 18.1781C0.137254 18.6718 0.508375 19.1615 1.02122 19.1615H5.76921C6.11621 19.1615 6.42081 18.9306 6.51461 18.5965L7.87281 13.7578C8.01141 13.264 7.64021 12.7744 7.12741 12.7744Z" fill="url(#paint3_linear_2214_9078)"/>
</g>
<path d="M28 4.07958C28 4.04797 28.0024 4.02843 28.0054 4.01646C28.0065 4.0122 28.0075 4.00958 28.0081 4.00813C28.0096 4.00747 28.0122 4.00648 28.0165 4.0054C28.0284 4.00237 28.048 4 28.0796 4H28.2418C28.3241 4 28.4006 4.0394 28.4929 4.13156L39.9372 15.8998V18.4327C39.9372 18.4643 39.9349 18.4839 39.9318 18.4958C39.9308 18.5001 39.9298 18.5027 39.9291 18.5042C39.9277 18.5048 39.925 18.5058 39.9208 18.5069C39.9088 18.5099 39.8893 18.5123 39.8577 18.5123H39.7158C39.6334 18.5123 39.5571 18.4735 39.4413 18.3775L28 6.49112V4.07958Z" fill="white"/>
<path d="M37.6901 4.5864C37.6901 4.4284 37.7163 4.35946 37.7512 4.32464C37.786 4.28982 37.8549 4.26355 38.0129 4.26355H39.6144C39.7724 4.26355 39.8413 4.28982 39.8761 4.32464C39.911 4.35946 39.9372 4.4284 39.9372 4.5864V15.0985L37.6901 12.7955V4.5864Z" fill="white"/>
<path d="M43.1102 4.5864C43.1102 4.43229 43.14 4.36314 43.1786 4.32728C43.2193 4.28951 43.296 4.26355 43.4533 4.26355H45.0345C45.2047 4.26355 45.2711 4.29059 45.3024 4.3232C45.3348 4.35687 45.3573 4.42428 45.3573 4.5864V12.4117C45.3573 13.8462 45.7057 14.8779 46.3162 15.5569C46.9072 16.2141 47.7311 16.5269 48.682 16.566V18.5095C47.1728 18.459 45.7955 17.9501 44.7891 16.9801C43.7606 15.9887 43.1102 14.5067 43.1102 12.5131V4.5864Z" fill="white"/>
<path d="M52.557 4.5864C52.557 4.42428 52.5795 4.35687 52.6119 4.3232C52.6432 4.29059 52.7096 4.26355 52.8798 4.26355H54.461C54.6304 4.26355 54.7047 4.2902 54.7419 4.326C54.7778 4.36056 54.8041 4.42827 54.8041 4.5864V12.5131C54.8041 14.5069 54.1586 15.9838 53.1328 16.9725C52.1289 17.94 50.7516 18.449 49.2323 18.5089V16.5651C50.2119 16.5167 51.0371 16.1943 51.6214 15.5334C52.2241 14.8517 52.557 13.8252 52.557 12.4117V4.5864Z" fill="white"/>
<path d="M57.923 4.5864C57.923 4.4284 57.9493 4.35946 57.9841 4.32464C58.019 4.28982 58.0879 4.26355 58.2459 4.26355H60.1702V17.9259C60.1702 18.0961 60.1432 18.1625 60.1106 18.1938C60.0769 18.2262 60.0095 18.2487 59.8474 18.2487H58.2459C58.0838 18.2487 58.0164 18.2262 57.9827 18.1938C57.9501 18.1625 57.923 18.0961 57.923 17.9259V4.5864Z" fill="white"/>
<path d="M60.7206 6.10534V4.26355H63.1923C64.336 4.26355 65.5753 4.50476 66.5254 5.14313C67.4697 5.77757 68.1372 6.80968 68.1372 8.41796C68.1372 10.0273 67.4839 11.0748 66.547 11.724C65.6046 12.377 64.3658 12.6332 63.1923 12.6332H60.7206V10.7914H63.0909C64.1594 10.7914 64.8838 10.5398 65.3409 10.1069C65.7991 9.67295 65.9711 9.07369 65.9711 8.41796C65.9711 7.62232 65.7026 7.03637 65.1953 6.65322C64.6934 6.27409 63.9729 6.10534 63.0909 6.10534H60.7206Z" fill="white"/>
<path d="M69.4035 4.5864C69.4035 4.4284 69.4298 4.35946 69.4646 4.32464C69.4995 4.28982 69.5684 4.26355 69.7264 4.26355H76.516V17.9259C76.516 18.084 76.4897 18.1517 76.4538 18.1863C76.4166 18.2221 76.3422 18.2487 76.1729 18.2487H74.5917C74.4215 18.2487 74.3551 18.2217 74.3238 18.1891C74.2914 18.1554 74.2688 18.088 74.2688 17.9259V6.24725H69.7264C69.5562 6.24725 69.4898 6.22021 69.4584 6.1876C69.4261 6.15393 69.4035 6.08652 69.4035 5.9244V4.5864Z" fill="white"/>
<path d="M77.0664 6.24725V4.26355H81.0382C81.2084 4.26355 81.2748 4.29059 81.3062 4.3232C81.3385 4.35687 81.3611 4.42428 81.3611 4.5864V5.9244C81.3611 6.0946 81.334 6.16099 81.3014 6.19235C81.2677 6.22472 81.2003 6.24725 81.0382 6.24725H77.0664Z" fill="white"/>
<path d="M82.9274 4.5864C82.9274 4.43229 82.9573 4.36314 82.9959 4.32728C83.0366 4.28951 83.1132 4.26355 83.2705 4.26355H84.8517C85.0219 4.26355 85.0883 4.29059 85.1197 4.3232C85.1521 4.35687 85.1746 4.42428 85.1746 4.5864V12.4117C85.1746 13.8462 85.5229 14.8779 86.1335 15.5569C86.7244 16.2141 87.5483 16.5269 88.4992 16.566V18.5095C86.99 18.459 85.6127 17.9501 84.6064 16.9801C83.5779 15.9887 82.9274 14.5067 82.9274 12.5131V4.5864Z" fill="white"/>
<path d="M92.3742 4.5864C92.3742 4.42428 92.3967 4.35687 92.4291 4.3232C92.4605 4.29059 92.5269 4.26355 92.697 4.26355H94.2783C94.4476 4.26355 94.522 4.2902 94.5591 4.326C94.595 4.36056 94.6214 4.42827 94.6214 4.5864V12.5131C94.6214 14.5069 93.9759 15.9838 92.95 16.9725C91.9462 17.94 90.5688 18.449 89.0496 18.5089V16.5651C90.0292 16.5167 90.8544 16.1943 91.4387 15.5334C92.0414 14.8517 92.3742 13.8252 92.3742 12.4117V4.5864Z" fill="white"/>
<path d="M97.7403 4.5864C97.7403 4.4284 97.7666 4.35946 97.8014 4.32464C97.8362 4.28982 97.9051 4.26355 98.0631 4.26355H99.9875V17.9259C99.9875 18.0961 99.9604 18.1625 99.9278 18.1938C99.8942 18.2262 99.8267 18.2487 99.6646 18.2487H98.0631C97.901 18.2487 97.8336 18.2262 97.7999 18.1938C97.7673 18.1625 97.7403 18.0961 97.7403 17.9259V4.5864Z" fill="white"/>
<path d="M100.538 6.10534V4.26355H103.01C104.153 4.26355 105.393 4.50476 106.343 5.14313C107.287 5.77757 107.954 6.80968 107.954 8.41796C107.954 10.0273 107.301 11.0748 106.364 11.724C105.422 12.377 104.183 12.6332 103.01 12.6332H100.538V10.7914H102.908C103.977 10.7914 104.701 10.5398 105.158 10.1069C105.616 9.67295 105.788 9.07369 105.788 8.41796C105.788 7.62232 105.52 7.03637 105.013 6.65322C104.511 6.27409 103.79 6.10534 102.908 6.10534H100.538Z" fill="white"/>
<path d="M110.939 4.5864C110.939 4.43229 110.969 4.36314 111.008 4.32728C111.048 4.28951 111.125 4.26355 111.282 4.26355H113.186V18.2487H111.282C111.113 18.2487 111.039 18.2221 111.001 18.1863C110.966 18.1517 110.939 18.084 110.939 17.9259V4.5864Z" fill="white"/>
<path d="M113.757 6.16616V4.26355H120.384C120.542 4.26355 120.618 4.28951 120.659 4.32728C120.698 4.36314 120.728 4.43229 120.728 4.5864V5.82304C120.728 5.97668 120.698 6.05337 120.656 6.09493C120.615 6.13649 120.538 6.16616 120.384 6.16616H113.757Z" fill="white"/>
<path d="M128.963 18.2002L122.113 4.54039C122.077 4.46794 122.083 4.39879 122.112 4.35003C122.14 4.30245 122.196 4.26355 122.284 4.26355H124.17C124.298 4.26355 124.369 4.28617 124.428 4.33271C124.493 4.38421 124.555 4.47282 124.646 4.63413L130.42 16.5256L129.553 18.2015L129.552 18.2025C129.539 18.2258 129.528 18.2477 129.517 18.2683C129.463 18.3693 129.425 18.4394 129.387 18.4887C129.366 18.5163 129.348 18.5314 129.333 18.5399C129.319 18.5478 129.303 18.5528 129.278 18.5528H129.217C129.201 18.5528 129.192 18.5493 129.183 18.5437C129.172 18.5364 129.158 18.5222 129.137 18.4926C129.116 18.463 129.094 18.4248 129.064 18.3737L129.055 18.357C129.029 18.3117 128.999 18.2589 128.963 18.2002Z" fill="white"/>
<path d="M133.871 4.63241L133.871 4.63161C133.951 4.47224 134.013 4.3843 134.079 4.33362C134.141 4.28642 134.217 4.26355 134.346 4.26355H136.211C136.329 4.26355 136.382 4.31165 136.406 4.35872C136.433 4.41323 136.431 4.48546 136.403 4.54039L130.739 15.9294L129.595 13.587L133.871 4.63241Z" fill="white"/>
<path d="M28 17.9259V7.29506L30.2472 9.63518V17.9259C30.2472 18.0839 30.2209 18.1528 30.1861 18.1877C30.1513 18.2225 30.0823 18.2487 29.9243 18.2487H28.3431C28.1858 18.2487 28.1092 18.2228 28.0685 18.185C28.0299 18.1492 28 18.08 28 17.9259Z" fill="white"/>
<path d="M113.757 12.1466V10.2643H120.08C120.255 10.2643 120.319 10.2875 120.35 10.3178C120.38 10.348 120.403 10.4128 120.403 10.5871V11.8238C120.403 11.9859 120.381 12.0533 120.348 12.087C120.317 12.1196 120.251 12.1466 120.08 12.1466H113.757Z" fill="white"/>
<path d="M63.4964 13.1836C64.2961 13.1836 64.8428 13.1091 65.3445 12.9391L65.3588 12.9582L68.7018 17.8613C68.756 17.9428 68.7761 18.0055 68.7788 18.0499C68.7813 18.0916 68.7692 18.1223 68.7474 18.1477C68.6981 18.2049 68.5838 18.2487 68.4225 18.2487H66.9223C66.7652 18.2487 66.6473 18.2167 66.5467 18.1568C66.4449 18.0961 66.3535 18.0025 66.2567 17.8671L66.256 17.8661L63.0822 13.1836H63.4964Z" fill="white"/>
<path d="M103.314 13.1836C104.113 13.1836 104.66 13.1091 105.162 12.9391L105.175 12.9562L105.177 12.96L108.519 17.8613L108.52 17.862C108.574 17.9434 108.593 18.0056 108.596 18.0499C108.599 18.0916 108.587 18.1223 108.565 18.1477C108.515 18.2049 108.401 18.2487 108.24 18.2487H106.74C106.582 18.2487 106.465 18.2167 106.364 18.1568C106.262 18.0962 106.171 18.0026 106.074 17.8672L106.073 17.8661L102.899 13.1836H103.314Z" fill="white"/>
<path d="M113.757 18.2487V16.3664H120.384C120.558 16.3664 120.631 16.3892 120.667 16.4226C120.7 16.4538 120.728 16.5189 120.728 16.6893V17.9259C120.728 18.084 120.701 18.1517 120.665 18.1863C120.628 18.2221 120.554 18.2487 120.384 18.2487H113.757Z" fill="white"/>
<defs>
<linearGradient id="paint0_linear_2214_9078" x1="5.51561" y1="2.14833e-07" x2="13.451" y2="11.2257" gradientUnits="userSpaceOnUse">
<stop stop-color="#2847C1"/>
<stop offset="1" stop-color="#5C51DF"/>
</linearGradient>
<linearGradient id="paint1_linear_2214_9078" x1="9.38671" y1="12.7744" x2="17.3221" y2="24.0001" gradientUnits="userSpaceOnUse">
<stop stop-color="#6051E2"/>
<stop offset="1" stop-color="#8C5AFC"/>
</linearGradient>
<linearGradient id="paint2_linear_2214_9078" x1="16.645" y1="4.83887" x2="21.1934" y2="11.2259" gradientUnits="userSpaceOnUse">
<stop stop-color="#4A4DD4"/>
<stop offset="1" stop-color="#6A53E7"/>
</linearGradient>
<linearGradient id="paint3_linear_2214_9078" x1="1.64496" y1="12.7744" x2="6.29011" y2="19.1615" gradientUnits="userSpaceOnUse">
<stop stop-color="#534FDA"/>
<stop offset="1" stop-color="#7054EB"/>
</linearGradient>
<clipPath id="clip0_2214_9078">
<rect width="23" height="24.0001" fill="white"/>
</clipPath>
</defs>
</svg>
