<svg width="69" height="69" viewBox="0 0 69 69" fill="none" xmlns="http://www.w3.org/2000/svg">
<rect width="69" height="69" rx="16" fill="#434348"/>
<path d="M17.6409 37.2875C17.3298 35.4154 17.3401 33.5346 17.6424 31.7161C19.5236 31.7619 21.2155 30.8594 21.8731 29.2719C22.5306 27.6844 21.9725 25.8498 20.6099 24.5519C21.6821 23.0523 23.0047 21.7152 24.5484 20.6113C25.8464 21.9746 27.6815 22.5333 29.2694 21.8755C30.8573 21.2178 31.76 19.5252 31.7137 17.6433C33.5858 17.3323 35.4665 17.3426 37.2851 17.6448C37.2394 19.5261 38.142 21.2179 39.7295 21.8755C41.3169 22.5331 43.1515 21.9749 44.4495 20.6124C45.949 21.6845 47.2862 23.0071 48.3901 24.5509C47.0267 25.8488 46.468 27.6839 47.1257 29.2719C47.7834 30.8598 49.4761 31.7624 51.358 31.7161C51.6691 33.5883 51.6588 35.469 51.3564 37.2875C49.4752 37.2419 47.7833 38.1444 47.1257 39.7318C46.4682 41.3194 47.0263 43.1539 48.3889 44.4518C47.3167 45.9515 45.9941 47.2886 44.4505 48.3924C43.1525 47.0291 41.3174 46.4705 39.7295 47.1282C38.1414 47.7859 37.2389 49.4785 37.2851 51.3604C35.4129 51.6715 33.5322 51.6613 31.7138 51.3589C31.7595 49.4777 30.8569 47.7857 29.2694 47.1282C27.6819 46.4707 25.8474 47.0288 24.5495 48.3913C23.0498 47.3192 21.7127 45.9966 20.6089 44.4529C21.9722 43.155 22.5308 41.3199 21.8731 39.7318C21.2153 38.1439 19.5227 37.2414 17.6409 37.2875ZM34.4994 39.6269C37.3298 39.6269 39.6244 37.3323 39.6244 34.5019C39.6244 31.6714 37.3298 29.3769 34.4994 29.3769C31.6689 29.3769 29.3744 31.6714 29.3744 34.5019C29.3744 37.3323 31.6689 39.6269 34.4994 39.6269Z" fill="white"/>
</svg>
