<svg width="41" height="41" viewBox="0 0 41 41" fill="none" xmlns="http://www.w3.org/2000/svg">
<g id="Frame">
<path id="Vector" d="M3.64088 23.2875C3.32984 21.4154 3.34011 19.5346 3.6424 17.7161C5.52363 17.7619 7.21552 16.8594 7.87307 15.2719C8.53064 13.6844 7.9725 11.8498 6.60995 10.5519C7.68208 9.05228 9.00467 7.71517 10.5484 6.61129C11.8464 7.97463 13.6815 8.53325 15.2694 7.87551C16.8573 7.21777 17.76 5.52515 17.7137 3.64332C19.5858 3.33228 21.4665 3.34255 23.2851 3.64484C23.2394 5.52606 24.142 7.21794 25.7295 7.87551C27.3169 8.53308 29.1515 7.97492 30.4495 6.61239C31.949 7.68452 33.2862 9.00709 34.3901 10.5509C33.0267 11.8488 32.468 13.6839 33.1257 15.2719C33.7834 16.8598 35.4761 17.7624 37.358 17.7161C37.6691 19.5883 37.6588 21.469 37.3564 23.2875C35.4752 23.2419 33.7833 24.1444 33.1257 25.7318C32.4682 27.3194 33.0263 29.1539 34.3889 30.4518C33.3167 31.9515 31.9941 33.2886 30.4505 34.3924C29.1525 33.0291 27.3174 32.4705 25.7295 33.1282C24.1414 33.7859 23.2389 35.4785 23.2851 37.3604C21.4129 37.6715 19.5322 37.6613 17.7138 37.3589C17.7595 35.4777 16.8569 33.7857 15.2694 33.1282C13.6819 32.4707 11.8474 33.0288 10.5495 34.3913C9.04984 33.3192 7.71273 31.9966 6.60885 30.4529C7.97219 29.155 8.53081 27.3199 7.87307 25.7318C7.21533 24.1439 5.52273 23.2414 3.64088 23.2875ZM20.4994 25.6269C23.3298 25.6269 25.6244 23.3323 25.6244 20.5019C25.6244 17.6714 23.3298 15.3769 20.4994 15.3769C17.6689 15.3769 15.3744 17.6714 15.3744 20.5019C15.3744 23.3323 17.6689 25.6269 20.4994 25.6269Z" fill="white"/>
</g>
</svg>
