<svg width="69" height="69" viewBox="0 0 69 69" fill="none" xmlns="http://www.w3.org/2000/svg">
<rect width="69" height="69" rx="16" fill="#434348"/>
<path d="M22.6605 20.3208C24.6643 19.6085 26.9877 20.0542 28.5915 21.658C30.1958 23.2623 30.6413 25.5865 29.9281 27.5907L47.5507 45.2136L44.1036 48.6607L26.4791 31.0385C24.4754 31.751 22.152 31.3052 20.5482 29.7014C18.9439 28.0971 18.4983 25.7728 19.2116 23.7687L22.8462 27.4033C23.7982 28.3552 25.3415 28.3552 26.2934 27.4033C27.2453 26.4514 27.2453 24.908 26.2934 23.9561L22.6605 20.3208ZM39.5075 23.3816L44.6782 20.509L46.9763 22.8071L44.1036 27.9778L41.231 28.5523L37.7838 31.9994L35.4858 29.7014L38.9329 26.2542L39.5075 23.3816ZM28.017 36.0211L31.4641 39.4682L23.4208 47.5117C22.4689 48.4636 20.9255 48.4636 19.9736 47.5117C19.0777 46.6156 19.025 45.1959 19.8155 44.2383L19.9736 44.0644L28.017 36.0211Z" fill="white"/>
</svg>
